<svg xmlns="http://www.w3.org/2000/svg" width="26" height="26" viewBox="0 0 26 26">
    <path d="M 13 0.1875 C 5.924 0.1875 0.1875 5.924 0.1875 13 C 0.1875 20.076 5.924 25.8125 13 25.8125 C 20.076 25.8125 25.8125 20.076 25.8125 13 C 25.8125 5.924 20.076 0.1875 13 0.1875 z M 13 2.1875 C 18.962 2.1875 23.8125 7.038 23.8125 13 C 23.8125 13.468017 23.776727 13.922485 23.71875 14.375 C 23.520368 14.323791 22.89514 14.165057 22.21875 14.15625 C 21.614897 14.147603 20.886022 14.24925 20.5 14.3125 C 20.603247 13.899091 20.6875 13.45771 20.6875 13 C 20.6875 11.86101 20.258316 10.750701 19.5 9.8125 C 19.781747 8.9303352 20.171546 6.9206274 19.40625 6.15625 C 17.529938 6.15625 16.478239 7.3465406 16.28125 7.59375 C 15.421188 7.281625 14.4925 7.125 13.5 7.125 C 12.532469 7.125 11.592596 7.2648502 10.75 7.5625 C 10.487877 7.2464711 9.4531088 6.15625 7.65625 6.15625 C 6.906967 6.9064336 7.2822334 8.8409068 7.5625 9.75 C 6.7697168 10.702865 6.3125 11.833418 6.3125 13 C 6.3125 13.431427 6.3458137 13.85772 6.4375 14.25 C 6.1076944 14.222144 4.7769378 14.125 4.25 14.125 C 3.7242405 14.125 2.8566645 14.239976 2.28125 14.375 C 2.2232844 13.922485 2.1875 13.468017 2.1875 13 C 2.1875 7.038 7.038 2.1875 13 2.1875 z M 4.25 14.375 C 4.767601 14.375 6.3709094 14.517671 6.53125 14.53125 C 6.5598553 14.626084 6.5906451 14.720466 6.625 14.8125 C 6.0995632 14.771478 4.9705005 14.694193 4.25 14.78125 C 3.3726828 14.885309 2.7230144 15.235508 2.46875 15.375 C 2.413807 15.130271 2.3504873 14.875634 2.3125 14.625 C 2.8624878 14.494238 3.7631846 14.375 4.25 14.375 z M 22.21875 14.40625 C 22.874177 14.414794 23.521117 14.554982 23.6875 14.59375 C 23.670669 14.706933 23.645323 14.825479 23.625 14.9375 C 23.538729 14.912784 22.757441 14.6767 21.9375 14.65625 C 21.534865 14.646365 20.898805 14.709935 20.40625 14.75 C 20.428245 14.688242 20.449307 14.625497 20.46875 14.5625 C 20.808745 14.5138 21.615612 14.397611 22.21875 14.40625 z M 21.90625 14.90625 C 22.702815 14.92612 23.548008 15.174398 23.59375 15.1875 C 22.856805 18.779176 20.337077 21.699548 17 23.03125 L 17 21.3125 C 17 20.230368 16.353923 18.824179 15.4375 18.125 C 18.02293 17.754177 19.631012 16.608797 20.3125 15 C 20.777839 14.960131 21.487574 14.895971 21.90625 14.90625 z M 5.0625 15 C 5.7777543 15.002785 6.4171329 15.039147 6.71875 15.0625 C 7.4150651 16.638237 9.0108177 17.759018 11.5625 18.125 C 11.272811 18.34609 11.003342 18.637974 10.78125 18.96875 C 10.773232 18.980691 10.757915 18.98796 10.75 19 C 10.251933 19.601258 9.3134279 19.5625 8.4375 19.5625 C 7.5445 19.5625 7.00925 18.84575 6.53125 18.21875 C 6.05125 17.59275 5.42475 17.538 5.09375 17.5 C 4.76075 17.465 4.67375 17.631 4.84375 17.75 C 5.81775 18.432 6.20075 19.271 6.59375 20 C 6.94775 20.656 7.679 21 8.5 21 L 10.03125 21 C 10.021042 21.103006 10 21.214199 10 21.3125 L 10 23.375 C 6.3180985 22.312068 3.4647679 19.359509 2.53125 15.625 C 2.7276581 15.515547 3.4121561 15.134335 4.28125 15.03125 C 4.4888823 15.006162 4.7657564 14.998845 5.0625 15 z M 13.5 21 C 13.776 21 14 21.224 14 21.5 L 14 23.75 C 13.667169 23.781001 13.34079 23.8125 13 23.8125 L 13 21.5 C 13 21.224 13.224 21 13.5 21 z M 11.5 21.59375 C 11.776 21.59375 12 21.81775 12 22.09375 L 12 23.75 C 11.667586 23.719037 11.323077 23.685494 11 23.625 L 11 22.09375 C 11 21.81775 11.224 21.59375 11.5 21.59375 z M 15.5 21.59375 C 15.776 21.59375 16 21.81775 16 22.09375 L 16 23.375 C 15.672594 23.469514 15.339269 23.561476 15 23.625 L 15 22.09375 C 15 21.81775 15.224 21.59375 15.5 21.59375 z"/>
</svg>