<?xml version="1.0" encoding="utf-8"?>
<!-- Generator: Adobe Illustrator 18.1.1, SVG Export Plug-In . SVG Version: 6.00 Build 0)  -->
<svg version="1.0" id="Layer_1" xmlns="http://www.w3.org/2000/svg" xmlns:xlink="http://www.w3.org/1999/xlink" x="0px" y="0px"
	 viewBox="0 0 48 48" enable-background="new 0 0 48 48" xml:space="preserve">
<g>
	<path fill="#37474F" d="M38.5,44.6l-4-4l2.1-2.1l4,4c0.6,0.6,0.6,1.5,0,2.1l0,0C40.1,45.1,39.1,45.1,38.5,44.6z"/>
	<path fill="#37474F" d="M9.5,44.6l4-4l-2.1-2.1l-4,4c-0.6,0.6-0.6,1.5,0,2.1l0,0C7.9,45.1,8.9,45.1,9.5,44.6z"/>
</g>
<circle fill="#C62828" cx="24" cy="24" r="20"/>
<circle fill="#EEEEEE" cx="24" cy="24" r="16"/>
<rect x="19" y="22.1" transform="matrix(-0.7071 -0.7071 0.7071 -0.7071 12.9038 62.5373)" fill="#E53935" width="0.8" height="13"/>
<g>
	<rect x="23" y="11" width="2" height="13"/>
	<rect x="26.1" y="22.7" transform="matrix(-0.7071 0.7071 -0.7071 -0.7071 65.7873 27.25)" width="2.3" height="9.2"/>
	<circle cx="24" cy="24" r="2"/>
</g>
<circle fill="#C62828" cx="24" cy="24" r="1"/>
<rect x="22" y="1" fill="#37474F" width="4" height="3"/>
<g>
	<path fill="#37474F" d="M44.4,16.2c2.5-3.5,2.1-8.4-1-11.5c-3.1-3.1-8-3.5-11.5-1L44.4,16.2z"/>
	<path fill="#37474F" d="M3.6,16.2c-2.5-3.5-2.1-8.4,1-11.5c3.1-3.1,8-3.5,11.5-1L3.6,16.2z"/>
</g>
</svg>
