<?xml version="1.0" encoding="utf-8"?>
<!-- Generator: Adobe Illustrator 18.1.1, SVG Export Plug-In . SVG Version: 6.00 Build 0)  -->
<svg version="1.0" id="Layer_1" xmlns="http://www.w3.org/2000/svg" xmlns:xlink="http://www.w3.org/1999/xlink" x="0px" y="0px"
	 viewBox="0 0 48 48" enable-background="new 0 0 48 48" xml:space="preserve">
<rect x="204" y="0" fill="none" width="48" height="48"/>
<g>
	<polygon fill="#90CAF9" points="244,45 212,45 212,3 234,3 244,13 	"/>
</g>
<polygon fill="#E1F5FE" points="242.5,14 233,14 233,4.5 "/>
<g>
	<circle fill="#1976D2" cx="227" cy="30" r="4"/>
	<polygon fill="#1976D2" points="234,21 229,19 229,30 231,30 231,22.9 234,24 	"/>
</g>
<g>
	<polygon fill="#90CAF9" points="40,45 8,45 8,3 30,3 40,13 	"/>
</g>
<polygon fill="#E1F5FE" points="38.5,14 29,14 29,4.5 "/>
<g>
	<circle fill="#1976D2" cx="23" cy="30" r="4"/>
	<polygon fill="#1976D2" points="30,21 25,19 25,30 27,30 27,22.9 30,24 	"/>
</g>
</svg>
