<?xml version="1.0" encoding="utf-8"?>
<!-- Generator: Adobe Illustrator 18.1.1, SVG Export Plug-In . SVG Version: 6.00 Build 0)  -->
<svg version="1.0" id="Layer_1" xmlns="http://www.w3.org/2000/svg" xmlns:xlink="http://www.w3.org/1999/xlink" x="0px" y="0px"
	 viewBox="0 0 48 48" enable-background="new 0 0 48 48" xml:space="preserve">
<g>
	<path fill="#CFD8DC" d="M5,38V14h38v24c0,2.2-1.8,4-4,4H9C6.8,42,5,40.2,5,38z"/>
</g>
<path fill="#F44336" d="M43,10v6H5v-6c0-2.2,1.8-4,4-4h30C41.2,6,43,7.8,43,10z"/>
<g>
	<circle fill="#B71C1C" cx="33" cy="10" r="3"/>
	<circle fill="#B71C1C" cx="15" cy="10" r="3"/>
</g>
<g>
	<path fill="#B0BEC5" d="M33,3c-1.1,0-2,0.9-2,2v5c0,1.1,0.9,2,2,2s2-0.9,2-2V5C35,3.9,34.1,3,33,3z"/>
	<path fill="#B0BEC5" d="M15,3c-1.1,0-2,0.9-2,2v5c0,1.1,0.9,2,2,2s2-0.9,2-2V5C17,3.9,16.1,3,15,3z"/>
</g>
<g>
	<rect x="13" y="20" fill="#90A4AE" width="4" height="4"/>
	<rect x="19" y="20" fill="#90A4AE" width="4" height="4"/>
	<rect x="25" y="20" fill="#90A4AE" width="4" height="4"/>
	<rect x="31" y="20" fill="#90A4AE" width="4" height="4"/>
	<rect x="13" y="26" fill="#90A4AE" width="4" height="4"/>
	<rect x="19" y="26" fill="#90A4AE" width="4" height="4"/>
	<rect x="25" y="26" fill="#90A4AE" width="4" height="4"/>
	<rect x="31" y="26" fill="#90A4AE" width="4" height="4"/>
	<rect x="13" y="32" fill="#90A4AE" width="4" height="4"/>
	<rect x="19" y="32" fill="#90A4AE" width="4" height="4"/>
	<rect x="25" y="32" fill="#90A4AE" width="4" height="4"/>
	<rect x="31" y="32" fill="#90A4AE" width="4" height="4"/>
</g>
</svg>
