<svg xmlns="http://www.w3.org/2000/svg" width="26" height="26" viewBox="0 0 26 26">
  <path d="M 7.25 2.15625 C 2.984 2.15625 -5.9211895e-16 5.117 0 9.375 C 0 16.474 12.62175 24.84375 12.96875 24.84375 L 13.03125 24.84375 C 13.38025 24.84375 26 16.474 26 9.375 C 26 5.117 23.016 2.15625 18.75 2.15625 C 16.273 2.15625 14.164 3.908 13 5.125 C 11.837 3.907 9.726 2.15625 7.25 2.15625 z M 14.65625 7.84375 C 15.19025 7.84375 15.672 7.92025 16.125 8.03125 C 16.577 8.14225 16.95525 8.3215 17.28125 8.5625 C 17.60825 8.8035 17.8765 9.09675 18.0625 9.46875 C 18.2475 9.84075 18.34375 10.2995 18.34375 10.8125 C 18.34375 10.9635 18.301 11.10025 18.25 11.28125 C 18.199 11.46225 18.13125 11.6415 18.03125 11.8125 C 17.93025 11.9845 17.80725 12.1575 17.65625 12.3125 C 17.50525 12.4685 17.326 12.5965 17.125 12.6875 C 17.638 12.9085 18.03525 13.2555 18.28125 13.6875 C 18.52725 14.1205 18.65625 14.58075 18.65625 15.09375 C 18.65525 15.57675 18.53875 15.998 18.34375 16.375 C 18.14775 16.752 17.88825 17.08275 17.53125 17.34375 C 17.17425 17.60575 16.748 17.8015 16.25 17.9375 C 15.752 18.0735 15.18675 18.15625 14.59375 18.15625 C 13.99975 18.15625 13.46075 18.07975 12.96875 17.96875 C 12.47675 17.85775 12.06675 17.6785 11.71875 17.4375 C 11.37175 17.1955 11.09725 16.91425 10.90625 16.53125 C 10.71425 16.14925 10.625 15.668 10.625 15.125 C 10.625 14.612 10.72675 14.13675 10.96875 13.71875 C 11.20975 13.30175 11.60075 12.97975 12.09375 12.71875 C 11.70175 12.52775 11.40975 12.26325 11.21875 11.90625 C 11.02675 11.54925 10.90625 11.18575 10.90625 10.84375 C 10.90625 10.35075 11.0055 9.90325 11.1875 9.53125 C 11.3685 9.15925 11.6155 8.877 11.9375 8.625 C 12.2595 8.374 12.667 8.15725 13.125 8.03125 C 13.583 7.90525 14.09325 7.84375 14.65625 7.84375 z M 8.0625 8.625 C 8.2695 8.625 8.4295 8.6405 8.5625 8.6875 C 8.6965 8.7345 8.798 8.82025 8.875 8.90625 C 8.953 8.99225 9.00425 9.10175 9.03125 9.21875 C 9.05625 9.33475 9.09375 9.45675 9.09375 9.59375 C 9.09375 9.71575 9.05725 9.8215 9.03125 9.9375 C 9.00525 10.0545 8.97825 10.159 8.90625 10.25 C 8.83225 10.34 8.72675 10.41275 8.59375 10.46875 C 8.45975 10.52475 8.2785 10.5625 8.0625 10.5625 C 7.8385 10.5625 7.66925 10.52475 7.53125 10.46875 C 7.39325 10.41275 7.2605 10.344 7.1875 10.25 C 7.1135 10.155 7.0835 10.0505 7.0625 9.9375 C 7.0405 9.8255 7.03125 9.71475 7.03125 9.59375 C 7.03125 9.32675 7.07975 9.09225 7.21875 8.90625 C 7.35575 8.72125 7.6485 8.625 8.0625 8.625 z M 14.65625 9.875 C 14.18425 9.875 13.832 9.96925 13.625 10.15625 C 13.419 10.34225 13.3125 10.574 13.3125 10.875 C 13.3125 11.136 13.41925 11.344 13.65625 11.5 C 13.89225 11.657 14.23325 11.785 14.65625 11.875 C 15.13925 11.795 15.47025 11.677 15.65625 11.5 C 15.84225 11.324 15.9375 11.107 15.9375 10.875 C 15.9375 10.523 15.8085 10.25475 15.5625 10.09375 C 15.3165 9.93275 15.02825 9.875 14.65625 9.875 z M 7.1875 11.5 C 7.225125 11.487875 7.28775 11.5 7.34375 11.5 L 8.75 11.5 C 8.862 11.5 8.93875 11.52975 8.96875 11.59375 C 8.99875 11.65975 9 11.72125 9 11.78125 L 9 17.03125 C 9 17.10025 8.99875 17.15875 8.96875 17.21875 C 8.93875 17.27975 8.862 17.3125 8.75 17.3125 L 7.34375 17.3125 C 7.23075 17.3125 7.13275 17.26975 7.09375 17.21875 C 7.05475 17.16675 7.0625 17.11725 7.0625 17.03125 L 7.0625 11.78125 C 7.0625 11.68625 7.05475 11.6095 7.09375 11.5625 C 7.11325 11.539 7.149875 11.512125 7.1875 11.5 z M 14.5625 13.53125 C 14.3815 13.56125 14.181 13.59125 14 13.65625 C 13.819 13.72225 13.652 13.80025 13.5 13.90625 C 13.35 14.01125 13.24725 14.1465 13.15625 14.3125 C 13.06625 14.4785 13 14.67525 13 14.90625 C 13 15.31825 13.17175 15.64275 13.46875 15.84375 C 13.76575 16.04575 14.13175 16.15625 14.59375 16.15625 C 15.08775 16.15625 15.48425 16.0385 15.78125 15.8125 C 16.07825 15.5855 16.21875 15.2795 16.21875 14.9375 C 16.21875 14.7155 16.18475 14.537 16.09375 14.375 C 16.00375 14.214 15.86975 14.07875 15.71875 13.96875 C 15.56675 13.85775 15.3885 13.7575 15.1875 13.6875 C 14.9865 13.6165 14.7935 13.58125 14.5625 13.53125 z"></path>
</svg>
