<?xml version="1.0" encoding="utf-8"?>
<!-- Generator: Adobe Illustrator 18.1.1, SVG Export Plug-In . SVG Version: 6.00 Build 0)  -->
<svg version="1.0" id="Layer_1" xmlns="http://www.w3.org/2000/svg" xmlns:xlink="http://www.w3.org/1999/xlink" x="0px" y="0px"
	 viewBox="0 0 48 48" enable-background="new 0 0 48 48" xml:space="preserve">
<rect x="16.7" y="1.6" transform="matrix(-0.7071 -0.7071 0.7071 -0.7071 24 57.9411)" fill="#FFA000" width="14.6" height="44.8"/>
<g>
	
		<rect x="17.9" y="20.2" transform="matrix(-0.7071 -0.7071 0.7071 -0.7071 21.1765 51.1246)" fill="#9E6400" width="6.6" height="2"/>
	
		<rect x="22.3" y="15.2" transform="matrix(-0.7071 -0.7071 0.7071 -0.7071 29.8334 44.7104)" fill="#9E6400" width="3.7" height="2"/>
	
		<rect x="25.9" y="12.2" transform="matrix(-0.7071 -0.7071 0.7071 -0.7071 40.4902 43.1246)" fill="#9E6400" width="6.6" height="2"/>
	<rect x="31.2" y="6.3" transform="matrix(0.7071 -0.7071 0.7071 0.7071 3.6426 25.1471)" fill="#9E6400" width="2" height="3.7"/>
	
		<rect x="6.3" y="31.2" transform="matrix(-0.7071 -0.7071 0.7071 -0.7071 -8.794 60.7104)" fill="#9E6400" width="3.7" height="2"/>
	
		<rect x="9.9" y="28.2" transform="matrix(-0.7071 -0.7071 0.7071 -0.7071 1.8628 59.1246)" fill="#9E6400" width="6.6" height="2"/>
	
		<rect x="14.3" y="23.2" transform="matrix(-0.7071 -0.7071 0.7071 -0.7071 10.5197 52.7104)" fill="#9E6400" width="3.7" height="2"/>
</g>
</svg>
