<svg>
    <defs>
        <g id="about">
            <path fill="#2196F3" d="M37 40H11l-6 6V12c0-3.3 2.7-6 6-6h26c3.3 0 6 2.7 6 6v22c0 3.3-2.7 6-6 6z"/>
            <g fill="#fff">
                <path d="M22 20h4v11h-4z"/>
                <circle cx="24" cy="15" r="2"/>
            </g>
        </g>
        <g id="home">
            <path fill="#E8EAF6" d="M42 39H6V23L24 6l18 17z"/>
            <g fill="#C5CAE9">
                <path d="M39 21l-5-5V9h5zM6 39h36v5H6z"/>
            </g>
            <path fill="#B71C1C" d="M24 4.3L4 22.9l2 2.2L24 8.4l18 16.7 2-2.2z"/>
            <path fill="#D84315" d="M18 28h12v16H18z"/>
            <path fill="#01579B" d="M21 17h6v6h-6z"/>
            <path fill="#FF8A65" d="M27.5 35.5c-.3 0-.5.2-.5.5v2c0 .3.2.5.5.5s.5-.2.5-.5v-2c0-.3-.2-.5-.5-.5z"/>
        </g>
    </defs>
</svg>