<svg>
  <symbol viewBox="0 0 24 24" enable-background="new 0 0 24 24" id="contacts">
    <path d="M20,2H4C2.9,2,2,2.9,2,4v16c0,1.1,0.9,2,2,2h16c1.1,0,2-0.9,2-2V4C22,2.9,21.1,2,20,2z M12,6c1.7,0,3,1.3,3,3s-1.3,3-3,3 s-3-1.3-3-3S10.3,6,12,6z M18,18H6v-1.3c0-0.5,0.2-0.9,0.6-1.2C7.4,14.9,9.1,14,12,14s4.6,0.9,5.4,1.4c0.4,0.3,0.6,0.7,0.6,1.2V18z"></path>
  </symbol>
  <symbol viewBox="0 0 24 24" enable-background="new 0 0 24 24" id="picture">
    <path d="M 0 2 L 0 22 L 24 22 L 24 2 L 0 2 z M 2 4 L 22 4 L 22 20 L 2 20 L 2 4 z M 17 7 C 15.895431 7 15 7.8954305 15 9 C 15 10.104569 15.895431 11 17 11 C 18.104569 11 19 10.104569 19 9 C 19 7.8954305 18.104569 7 17 7 z M 7.875 9.78125 L 4 12.53125 L 4 18 L 20 18 L 20 14.84375 L 15.9375 12.375 L 12.53125 13.90625 L 7.875 9.78125 z"></path>
  </symbol>
</svg>
