<svg xmlns="http://www.w3.org/2000/svg" width="50" height="50" viewBox="0 0 50 50">
    <path d="M 15.59375 2 L 1 11.40625 L 11 19 L 25 10.09375 L 15.59375 2 z M 25 10.09375 L 39.6875 18.59375 L 49 11 L 34.8125 2 L 25 10.09375 z M 39.6875 18.59375 L 25 27.8125 L 34.59375 35.09375 L 49 26.5 L 39.6875 18.59375 z M 25 27.8125 L 11 19 L 1 26.5 L 15.59375 35.09375 L 25 27.8125 z M 25 30.3125 L 16.8125 36.6875 C 16.4615 36.9585 16.03475 37.09375 15.59375 37.09375 C 15.23675 37.09375 14.90175 36.9935 14.59375 36.8125 L 9 33.53125 L 9 39.09375 C 9 39.42975 9.1575 39.7515 9.4375 39.9375 L 24.4375 49.84375 C 24.6045 49.95375 24.808 50 25 50 C 25.19 50 25.3965 49.95175 25.5625 49.84375 L 40.5625 40.03125 C 40.8455 39.84725 41 39.5255 41 39.1875 L 41 33.59375 L 35.625 36.8125 C 35.316 36.9985 34.95475 37.09375 34.59375 37.09375 C 34.15675 37.09375 33.721 36.9505 33.375 36.6875 L 25 30.3125 z"/>
</svg>