<svg xmlns="http://www.w3.org/2000/svg" width="26" height="26" viewBox="0 0 26 26">
    <path d="M14.659,11.87c0.483-0.08,0.817-0.208,1.003-0.385c0.186-0.176,0.279-0.379,0.279-0.611 c0-0.352-0.123-0.608-0.369-0.769c-0.246-0.161-0.556-0.242-0.928-0.242c-0.472,0-0.811,0.093-1.018,0.28 c-0.206,0.186-0.31,0.43-0.31,0.731c0,0.261,0.118,0.47,0.355,0.626C13.907,11.657,14.236,11.78,14.659,11.87z"/>
    <path d="M15.73,13.968c-0.152-0.111-0.327-0.201-0.528-0.271c-0.201-0.071-0.418-0.131-0.649-0.181 c-0.181,0.03-0.362,0.078-0.543,0.143c-0.181,0.066-0.346,0.151-0.498,0.257c-0.15,0.105-0.271,0.241-0.362,0.407 c-0.09,0.166-0.136,0.365-0.136,0.596c0,0.412,0.148,0.719,0.445,0.92c0.297,0.202,0.677,0.302,1.139,0.302 c0.494,0,0.888-0.113,1.185-0.339c0.297-0.227,0.445-0.51,0.445-0.852c0-0.222-0.045-0.412-0.136-0.574 C16.002,14.215,15.881,14.078,15.73,13.968z"/>
    <path d="M18.754,2.141c-2.477,0-4.593,1.766-5.757,2.983c-1.163-1.218-3.275-2.983-5.751-2.983 C2.98,2.141,0,5.116,0,9.374c0,7.099,12.617,15.485,12.964,15.485h0.068C13.381,24.859,26,16.473,26,9.374 C26,5.116,23.02,2.141,18.754,2.141z M9.015,17.022c0,0.069-0.015,0.134-0.045,0.194c-0.03,0.061-0.101,0.09-0.213,0.09H7.334 c-0.113,0-0.187-0.026-0.226-0.077c-0.039-0.052-0.058-0.121-0.058-0.207v-5.241c0-0.095,0.019-0.166,0.058-0.213 c0.039-0.047,0.114-0.072,0.226-0.072h1.423c0.112,0,0.183,0.033,0.213,0.097C9,11.659,9.015,11.721,9.015,11.781V17.022z M9.041,9.942c-0.026,0.117-0.076,0.22-0.148,0.311c-0.074,0.09-0.177,0.164-0.31,0.22c-0.134,0.056-0.308,0.084-0.524,0.084 c-0.224,0-0.405-0.028-0.543-0.084c-0.138-0.056-0.244-0.132-0.317-0.226c-0.074-0.095-0.121-0.198-0.142-0.311 C7.035,9.824,7.024,9.708,7.024,9.587c0-0.267,0.069-0.493,0.208-0.679C7.369,8.723,7.645,8.63,8.059,8.63 c0.207,0,0.377,0.024,0.51,0.071c0.134,0.047,0.24,0.114,0.317,0.2c0.078,0.086,0.129,0.187,0.156,0.304 c0.025,0.116,0.039,0.244,0.039,0.381C9.081,9.708,9.067,9.826,9.041,9.942z M18.348,16.389c-0.196,0.377-0.473,0.697-0.83,0.958 c-0.357,0.262-0.784,0.46-1.282,0.596c-0.498,0.136-1.044,0.204-1.637,0.204c-0.594,0-1.137-0.055-1.629-0.166 c-0.492-0.111-0.912-0.287-1.26-0.528c-0.347-0.242-0.616-0.553-0.807-0.936c-0.192-0.382-0.286-0.845-0.286-1.388 c0-0.513,0.12-0.978,0.362-1.396c0.241-0.417,0.608-0.757,1.101-1.018c-0.392-0.191-0.684-0.465-0.875-0.822 c-0.192-0.357-0.287-0.707-0.287-1.049c0-0.493,0.091-0.926,0.273-1.298c0.181-0.372,0.431-0.684,0.753-0.936 c0.322-0.251,0.711-0.44,1.169-0.566c0.458-0.126,0.968-0.188,1.531-0.188c0.534,0,1.026,0.055,1.479,0.166 c0.452,0.111,0.843,0.287,1.169,0.528c0.327,0.241,0.584,0.548,0.77,0.92c0.185,0.372,0.279,0.815,0.279,1.328 c0,0.151-0.025,0.317-0.076,0.498s-0.126,0.357-0.226,0.528c-0.101,0.172-0.226,0.335-0.377,0.49 c-0.151,0.156-0.327,0.279-0.528,0.37V12.7c0.513,0.221,0.893,0.549,1.139,0.981c0.246,0.433,0.37,0.905,0.37,1.418 C18.642,15.582,18.543,16.012,18.348,16.389z"/>
</svg>