<svg xmlns="http://www.w3.org/2000/svg" width="50" height="50" viewBox="0 0 50 50">
    <path d="M24.646,26.121c-1.302-2.014-2.242-3.68-3.548-6.817c-2.208-5.306,13.433-10.1,7.087-19.306 c2.75,6.363-9.863,10.291-11.034,15.593C16.075,20.462,24.639,26.121,24.646,26.121z"/>
    <path d="M24.942,16.583c-0.251,3.148,2.903,4.828,2.993,7.119c0.073,1.871-1.885,3.428-1.885,3.428s3.552-0.667,4.662-3.524 c1.231-3.167-2.386-5.331-2.019-7.867c0.351-2.426,7.858-6.928,7.858-6.928S25.505,9.511,24.942,16.583z"/>
    <path d="M35.625,26.315c2.283-0.492,4.211,0.904,4.211,2.515c0,3.624-5.236,7.049-5.236,7.049s8.108-0.927,8.108-6.881 C42.708,25.065,38.725,24.084,35.625,26.315z"/>
    <path d="M31.779,29.24c0,0,2.529-1.73,3.201-2.376c-6.202,1.264-20.36,1.432-20.36,0.337c0-1.009,4.563-2.049,4.563-2.049 s-10.12-0.139-10.12,2.726C9.064,30.869,22.315,31.08,31.779,29.24z"/>
    <path d="M30.223,31.96c-5.867,1.878-16.685,1.276-13.483-1.238c-1.554,0-3.87,1.202-3.87,2.357c0,2.325,11.693,4.115,20.349,0.719 L30.223,31.96z"/>
    <path d="M18.18,35.922c-2.128,0-3.509,1.315-3.509,2.28c0,2.985,12.708,3.286,17.744,0.251l-3.2-2.037 C25.454,38.007,16.008,38.222,18.18,35.922z"/>
    <path d="M40.89,40.924c0-1.167-1.374-1.721-1.87-1.986c2.901,6.718-29.052,6.196-29.052,2.233c0-0.904,2.347-1.787,4.525-1.365 l-1.848-1.049c-4.335-0.655-7.279,1.171-7.279,2.648C5.365,48.281,40.89,47.95,40.89,40.924z"/>
    <path d="M44.635,43.25c-5.4,5.119-19.089,6.984-32.853,3.823C25.545,52.704,44.567,49.536,44.635,43.25z"/>
</svg>