<svg width="32px" height="32px" viewBox="0 0 32 32" version="1.1" xmlns="http://www.w3.org/2000/svg">
  <g transform="translate(-25, -21)">
    <g transform="translate(25, 21)">
      <path d="M15.9999148,20.1784624 C17.1083232,21.5841188 18.826588,22.4864865 20.7556304,22.4864865 C24.1008473,22.4864865 26.8108108,19.7765229 26.8108108,16.4335588 C26.8108108,13.0883419 24.1008473,10.3783784 20.7556304,10.3783784 C18.826588,10.3783784 17.1083232,11.2807461 15.9999148,12.6868353 C14.8912739,11.2807461 13.1724592,10.3783784 11.2421169,10.3783784 C7.89915273,10.3783784 5.18918919,13.0883419 5.18918919,16.4335588 C5.18918919,19.7765229 7.89915273,22.4864865 11.2421169,22.4864865 C13.1724592,22.4864865 14.8912739,21.5841188 15.9999148,20.1784624 L15.9999148,20.1784624 Z M32,16 C32,24.836339 24.836339,32 16,32 C7.16366102,32 0,24.836339 0,16 C0,7.16366102 7.16366102,0 16,0 C24.836339,0 32,7.16366102 32,16 Z M23.3513514,16.4314201 C23.3513514,17.8648754 22.1891997,19.027027 20.7557444,19.027027 C19.3243138,19.027027 18.1621622,17.8648754 18.1621622,16.4314201 C18.1621622,14.9999895 19.3243138,13.8378378 20.7557444,13.8378378 C22.1891997,13.8378378 23.3513514,14.9999895 23.3513514,16.4314201 Z M13.8378378,16.4314201 C13.8378378,17.8648754 12.6756862,19.027027 11.2442556,19.027027 C9.81080027,19.027027 8.64864865,17.8648754 8.64864865,16.4314201 C8.64864865,14.9999895 9.81080027,13.8378378 11.2442556,13.8378378 C12.6756862,13.8378378 13.8378378,14.9999895 13.8378378,16.4314201 Z"></path>
    </g>
  </g>
</svg>
